# xmcd
#
# Track frame offsets:
#	150
#	17748
#	33381
#	47591
#	62574
#	75271
#	91747
#	108742
#	126161
#	140503
#	156955
#	174031
#	190393
#	207840
#	222257
#	240931
#	254697
#	271668
#	281348
#	296445
#	310409
#	322095
#	333539
#
# Disc length: 4626 seconds
#
# Revision: 0
# Processed by: cddbd v1.5.2PL0 Copyright (c) Steve Scherf et al.
# Submitted via: EasyCDDAExtractor 8.2.1.1
#
DISCID=46121017
DTITLE=Various Artist - CMC The Best Of Country Music Channel 2008
DYEAR=2008
DGENRE=Country
TTITLE0=Keith Urban - Everybody
TTITLE1=Catherine Britt - Little Wild Flower
TTITLE2=Adam Brand - Get Down On The Road
TTITLE3=The McClymonts - My Life Again
TTITLE4=Steve Forde - Summer's Little Angel
TTITLE5=The Sunny Cowgirls - Cuttin' Up B&S Style
TTITLE6=Adam Harvey - I'm Doin' Alright
TTITLE7=Sara Storer - Land Cries Out
TTITLE8=Travis Collins - Yeah She Does
TTITLE9=Kasey Chambers and Shane Nicholson - Rattlin' Bones
TTITLE10=Troy Cassar-Daley - Everythings Going To Be Alright
TTITLE11=The Slim Dusty Family feat David Kirkpatrick - Old Purple
TTITLE12=Morgan Evans - Big Skies
TTITLE13=Shea Fisher - Just The Excuse
TTITLE14=The Davidson Brothers - I Miss The Sound Of Rain
TTITLE15=Amber Lawrence - Things That Bring Me Down
TTITLE16=Matt Scullion - Feels Like Sunday
TTITLE17=Peter Denahy - Sort Of Dunno Nothin'
TTITLE18=Felicity Urquhart - No Mistakes
TTITLE19=Rob Black - Regular Guy
TTITLE20=Amos Morris - Frustrated Truckie
TTITLE21=Kristy Lee Akers - Little Things
TTITLE22=James Blundell - Nature's Gentleman
EXTD=
EXTT0=
EXTT1=
EXTT2=
EXTT3=
EXTT4=
EXTT5=
EXTT6=
EXTT7=
EXTT8=
EXTT9=
EXTT10=
EXTT11=
EXTT12=
EXTT13=
EXTT14=
EXTT15=
EXTT16=
EXTT17=
EXTT18=
EXTT19=
EXTT20=
EXTT21=
EXTT22=
PLAYORDER=
